<svg xmlns="http://www.w3.org/2000/svg" width="199" height="45" viewBox="0 0 199 45"><defs><clipPath id="v9fga"><path d="M.02.18H38.5v44.469H.02z"/></clipPath></defs><g><g><g><g><g/><g clip-path="url(#v9fga)"><path fill="#00293d" d="M18.7.18H0v18.905h18.7V.18"/></g><g clip-path="url(#v9fga)"><path fill="#b4ad74" d="M38.5 19.085V.18H19.8v18.905h18.7"/></g><g clip-path="url(#v9fga)"><path fill="#dc3e2a" d="M0 20.17v3.136c0 4.903 1.078 10.524 5.839 13.89 4.075 2.88 10.892 6.44 12.861 7.45V20.17H0"/></g></g><g><path fill="#00293d" d="M19.8 44.646c1.97-1.012 8.787-4.57 12.862-7.45 4.76-3.366 5.838-8.987 5.838-13.89V20.17H19.8v24.476"/></g><g><path fill="#00293d" d="M62.471 20.928c-.954-.218-2.023-.328-3.176-.328-1.452 0-2.8.196-4.01.584-1.21.387-2.265.962-3.135 1.706a7.757 7.757 0 0 0-2.042 2.747c-.483 1.076-.728 2.318-.728 3.692s.245 2.616.728 3.692a7.908 7.908 0 0 0 2.014 2.746c.853.745 1.883 1.307 3.06 1.671 1.173.363 2.468.547 3.851.547.648 0 1.279-.05 1.875-.146a19.621 19.621 0 0 0 1.618-.327 7.614 7.614 0 0 0 1.247-.416c.352-.157.603-.3.768-.435l.028-.024.25-1.51-.203-.187-.066.047c-.243.176-.545.382-.899.613-.352.23-.753.445-1.19.643-.436.197-.925.37-1.452.513a6.532 6.532 0 0 1-1.714.213 8.634 8.634 0 0 1-2.834-.452 6.077 6.077 0 0 1-2.267-1.388c-.64-.622-1.148-1.42-1.508-2.375-.36-.957-.543-2.109-.543-3.425 0-1.316.183-2.468.543-3.426.36-.954.867-1.753 1.508-2.375a6.097 6.097 0 0 1 2.267-1.387c.867-.3 1.82-.453 2.834-.453.616 0 1.187.076 1.7.225.515.15.984.339 1.394.559.413.222.779.454 1.086.69.307.235.549.45.72.639l.042.047.274-.084.011-.057c.053-.257.122-.577.21-.962.084-.373.194-.672.327-.887l.06-.097-.106-.044a15.815 15.815 0 0 0-2.542-.789"/></g><g><path fill="#00293d" d="M83.423 24.14c.043-1.02.091-2.061.144-3.121l.005-.119-.118.017c-.226.032-.443.06-.652.084a5.416 5.416 0 0 1-1.234 0 23.052 23.052 0 0 1-.651-.084l-.119-.017.006.119c.052 1.06.1 2.1.144 3.121.043 1.02.065 2.07.065 3.118v.747l-2.638.047a153.098 153.098 0 0 1-5.467 0l-2.639-.047v-.747c0-1.057.022-2.106.065-3.118.044-1.02.092-2.061.145-3.121l.005-.119-.118.017c-.226.032-.443.06-.652.084a5.416 5.416 0 0 1-1.234 0 22.754 22.754 0 0 1-.651-.084l-.119-.017.006.119c.052 1.06.1 2.1.144 3.121.043 1.02.065 2.07.065 3.118v4.146c0 1.049-.022 2.102-.065 3.13-.045 1.04-.093 2.061-.144 3.037l-.006.112.113-.01c.393-.031.822-.047 1.274-.047.452 0 .881.016 1.275.047l.112.01-.005-.112c-.054-1.01-.102-2.033-.145-3.037a74.16 74.16 0 0 1-.065-3.13v-2.073a337.063 337.063 0 0 1 5.372-.047 292.261 292.261 0 0 1 5.372.047v2.073c0 1.049-.022 2.102-.065 3.13a305.682 305.682 0 0 1-.144 3.037l-.006.112.113-.01c.393-.031.822-.047 1.274-.047.452 0 .881.016 1.275.047l.112.01-.005-.112a288.572 288.572 0 0 1-.144-3.037 74.154 74.154 0 0 1-.066-3.13v-4.146c0-1.057.023-2.106.066-3.118"/></g><g><path fill="#00293d" d="M90.185 24.14c.043-1.02.091-2.061.144-3.121l.005-.119-.118.017c-.226.032-.443.06-.652.084a5.416 5.416 0 0 1-1.234 0 22.884 22.884 0 0 1-.651-.084l-.119-.017.006.119c.052 1.06.1 2.1.144 3.121.043 1.02.065 2.07.065 3.118v4.146c0 1.049-.022 2.102-.065 3.13-.045 1.04-.093 2.061-.144 3.037l-.006.112.113-.01c.393-.031.822-.047 1.274-.047.452 0 .881.016 1.275.047l.112.01-.005-.112c-.054-1.01-.102-2.033-.144-3.037a73.62 73.62 0 0 1-.066-3.13v-4.146c0-1.057.022-2.106.066-3.118"/></g><g><path fill="#00293d" d="M106.152 20.928c-.955-.218-2.024-.328-3.177-.328-1.452 0-2.8.196-4.01.584-1.21.387-2.265.962-3.135 1.706a7.764 7.764 0 0 0-2.042 2.747c-.483 1.076-.728 2.318-.728 3.692s.245 2.616.728 3.692a7.904 7.904 0 0 0 2.015 2.746c.852.745 1.882 1.307 3.06 1.671 1.172.363 2.468.547 3.85.547.648 0 1.279-.05 1.875-.146a19.659 19.659 0 0 0 1.618-.327 7.599 7.599 0 0 0 1.247-.416c.352-.157.603-.3.768-.435l.029-.024.25-1.51-.204-.187-.065.047c-.244.176-.546.382-.9.613-.352.229-.752.445-1.19.643-.437.197-.924.37-1.452.513a6.526 6.526 0 0 1-1.714.213 8.635 8.635 0 0 1-2.834-.452 6.082 6.082 0 0 1-2.267-1.388c-.64-.622-1.148-1.42-1.508-2.375-.36-.957-.543-2.109-.543-3.425 0-1.316.183-2.468.543-3.426.36-.954.867-1.753 1.508-2.375a6.096 6.096 0 0 1 2.267-1.387c.868-.3 1.82-.453 2.834-.453a6.09 6.09 0 0 1 1.7.225c.515.15.984.339 1.394.559.414.222.78.454 1.086.69.307.236.549.45.72.639l.042.047.274-.084.012-.057c.052-.257.121-.577.208-.962.085-.374.195-.672.328-.887l.06-.097-.106-.044a15.82 15.82 0 0 0-2.541-.789"/></g><g><path fill="#00293d" d="M127.103 24.14c.043-1.02.092-2.061.144-3.121l.006-.119-.119.017c-.226.032-.443.06-.652.084a5.413 5.413 0 0 1-1.233 0 22.464 22.464 0 0 1-.652-.084l-.119-.017.006.119c.053 1.06.1 2.1.144 3.121.044 1.02.065 2.07.065 3.118v.747l-2.638.047a153.135 153.135 0 0 1-5.467 0l-2.638-.047v-.747c0-1.06.022-2.11.065-3.118.043-1.02.091-2.061.144-3.121l.006-.119-.119.017c-.226.032-.443.06-.652.084a5.413 5.413 0 0 1-1.233 0 22.902 22.902 0 0 1-.652-.084l-.119-.017.006.119c.052 1.06.1 2.1.144 3.121.043 1.022.065 2.071.065 3.118v4.146c0 1.047-.022 2.1-.065 3.13a316.465 316.465 0 0 1-.144 3.037l-.006.112.113-.01a16.13 16.13 0 0 1 1.275-.047c.451 0 .88.016 1.274.047l.113.01-.006-.112a290.363 290.363 0 0 1-.144-3.037 73.948 73.948 0 0 1-.065-3.13v-2.073a336.86 336.86 0 0 1 5.371-.047 292.28 292.28 0 0 1 5.372.047v2.073c0 1.049-.021 2.102-.065 3.13a315.73 315.73 0 0 1-.144 3.037l-.006.112.113-.01c.393-.031.822-.047 1.274-.047.453 0 .881.016 1.275.047l.113.01-.006-.112a292.423 292.423 0 0 1-.144-3.037 74.16 74.16 0 0 1-.065-3.13v-4.146c0-1.057.022-2.106.065-3.118"/></g><g><path fill="#00293d" d="M140.904 36.23l.05-.157-.163.032c-.414.08-.907.14-1.467.18a54.465 54.465 0 0 1-3.75.131h-1.738a36.94 36.94 0 0 1-.034-1.253c-.009-.574-.013-1.314-.013-2.265v-2.387c0-.265.004-.472.013-.633.006-.133.01-.26.012-.378.302.001.692.006 1.17.012.532.009 1.1.017 1.702.025.601.008 1.208.028 1.802.06.6.032 1.131.072 1.578.12l.136.015-.029-.133a3.332 3.332 0 0 1 0-1.43l.029-.129-.133.011c-.373.032-.781.06-1.215.085-.427.024-.894.048-1.4.072a77.545 77.545 0 0 1-3.64.084c0-.3-.005-.719-.012-1.254-.009-.573-.013-1.172-.013-1.83 0-.591.013-1.125.04-1.586.023-.43.044-.893.061-1.378a56.462 56.462 0 0 1 3.786.12c.514.033 1.002.065 1.465.097.462.032.973.064 1.532.096l.13.008-.027-.126a3.311 3.311 0 0 1 0-1.405l.027-.124-.128.005c-.785.032-1.561.06-2.329.085a75.706 75.706 0 0 1-4.666 0 239.77 239.77 0 0 1-2.342-.085l-.108-.004.005.107c.053 1.028.1 2.057.144 3.085a74.98 74.98 0 0 1 .065 3.13v4.146c0 1.047-.021 2.097-.065 3.118-.043 1.02-.091 2.045-.144 3.073l-.005.107.108-.004a59.616 59.616 0 0 1 2.378-.048h4.751c.778 0 1.565.016 2.339.048l.142.006-.044-.134a1.995 1.995 0 0 1-.074-.597c0-.11.004-.232.013-.367.008-.129.029-.247.061-.351"/></g><g><path fill="#00293d" d="M152.355 29.026a11.696 11.696 0 0 0-1.993-.863c-.7-.23-1.36-.496-1.964-.79a5.143 5.143 0 0 1-1.503-1.077c-.39-.412-.589-.99-.589-1.716 0-.42.081-.811.24-1.166.16-.355.389-.664.682-.919a3.205 3.205 0 0 1 1.041-.596c.398-.14.84-.21 1.315-.21.473 0 .882.073 1.217.22.338.148.633.333.877.55.244.217.44.456.582.71.145.26.262.503.347.722l.025.063h.46l.018-.076c.103-.46.208-.847.312-1.147.102-.298.231-.584.384-.851l.043-.076-.07-.051a5.706 5.706 0 0 0-1.731-.871c-.619-.187-1.36-.282-2.202-.282-.879 0-1.682.116-2.386.343-.706.227-1.32.55-1.825.957-.507.41-.9.904-1.166 1.469a4.375 4.375 0 0 0-.402 1.885c0 .965.213 1.747.634 2.324a5.18 5.18 0 0 0 1.56 1.413c.615.364 1.286.67 1.995.912.7.24 1.362.505 1.966.792.597.282 1.102.64 1.502 1.063.39.413.589.983.589 1.693 0 .467-.086.913-.255 1.326-.169.41-.412.773-.723 1.075a3.494 3.494 0 0 1-1.146.727 4.09 4.09 0 0 1-1.52.27 4.648 4.648 0 0 1-1.487-.224 4.457 4.457 0 0 1-1.166-.577 4.07 4.07 0 0 1-.843-.789c-.23-.29-.416-.58-.551-.861l-.027-.056h-.465l-.01.087c-.052.46-.109.843-.168 1.136-.06.29-.169.621-.322.982l-.03.07.062.046c.458.342 1.034.65 1.71.917.68.269 1.578.405 2.668.405 1.018 0 1.94-.135 2.74-.403.804-.268 1.494-.656 2.051-1.153a5.059 5.059 0 0 0 1.28-1.757 5.3 5.3 0 0 0 .441-2.137c0-.902-.214-1.635-.635-2.18a5.032 5.032 0 0 0-1.562-1.329"/></g><g><path fill="#00293d" d="M169.683 21.783c0-.184.043-.435.128-.746l.034-.127-.133.004c-1.151.032-2.277.06-3.376.084-2.184.048-4.565.048-6.749 0a547.447 547.447 0 0 1-3.376-.084l-.133-.004.035.127c.084.313.127.555.127.722 0 .214-.042.464-.127.744l-.043.145.151-.02c.358-.047.774-.088 1.238-.12.468-.033.95-.061 1.437-.085.486-.023.987-.04 1.489-.048.462-.007.905-.01 1.33-.012.05 1.619.074 3.264.074 4.893v4.146a74.28 74.28 0 0 1-.065 3.13c-.044 1.03-.092 2.051-.144 3.037l-.006.112.113-.01c.393-.031.822-.047 1.275-.047.452 0 .88.016 1.274.047l.113.01-.006-.112a299.23 299.23 0 0 1-.144-3.037 73.626 73.626 0 0 1-.065-3.13v-4.146c0-1.629.025-3.274.075-4.893.424.001.868.005 1.33.012.502.009 1.002.025 1.488.048.485.024.969.052 1.438.085.464.032.88.073 1.237.12l.151.02-.043-.145a2.557 2.557 0 0 1-.127-.72"/></g><g><path fill="#00293d" d="M181.635 36.23l.049-.157-.163.032c-.413.08-.907.14-1.467.18a54.442 54.442 0 0 1-3.749.131h-1.739a37.648 37.648 0 0 1-.034-1.253c-.008-.574-.012-1.314-.012-2.265v-2.387c0-.265.004-.472.012-.633.007-.133.011-.26.013-.378.302.001.691.006 1.17.012.531.009 1.1.017 1.701.025s1.208.028 1.803.06c.6.032 1.131.072 1.578.12l.136.015-.03-.133a3.442 3.442 0 0 1 0-1.43l.029-.129-.133.011c-.372.032-.78.06-1.214.085-.428.024-.894.048-1.4.072a77.504 77.504 0 0 1-3.64.084c0-.3-.005-.719-.013-1.254-.008-.573-.012-1.172-.012-1.83 0-.591.013-1.125.038-1.586.025-.43.045-.893.063-1.378a56.444 56.444 0 0 1 3.785.12c.514.033 1.003.065 1.465.097.463.032.974.064 1.533.096l.13.008-.028-.126a3.332 3.332 0 0 1 0-1.405l.027-.124-.128.005c-.785.032-1.561.06-2.329.085a75.706 75.706 0 0 1-4.666 0c-.776-.025-1.557-.053-2.341-.085l-.109-.004.006.107c.052 1.028.1 2.057.144 3.085a74.98 74.98 0 0 1 .065 3.13v4.146c0 1.047-.022 2.097-.065 3.118a380.91 380.91 0 0 1-.144 3.073l-.006.107.108-.004a59.612 59.612 0 0 1 2.378-.048h4.752c.777 0 1.564.016 2.338.048l.142.006-.044-.134a1.982 1.982 0 0 1-.074-.597c0-.11.005-.232.014-.367.008-.129.028-.247.06-.351"/></g><g><path fill="#00293d" d="M198.06 37.505l.225.207-.304-.038a6.324 6.324 0 0 0-.773-.047h-1.544c-.258 0-.51.015-.746.047l-.057.008-.035-.046c-.261-.337-.658-.843-1.19-1.518a98.428 98.428 0 0 0-1.765-2.167c-.637-.76-1.301-1.535-1.975-2.3a30.742 30.742 0 0 0-1.81-1.908h-.856v1.662c0 1.06.022 2.114.064 3.13.043.998.091 2.02.145 3.037l.006.111-.113-.009a16.15 16.15 0 0 0-1.275-.047c-.452 0-.88.016-1.275.047l-.112.01.006-.112c.051-.98.1-2.001.144-3.037.043-1.03.065-2.083.065-3.13V27.26c0-1.047-.022-2.096-.065-3.118-.044-1.02-.092-2.061-.144-3.121l-.005-.11.11.007c.505.032 1.002.06 1.49.084a23.13 23.13 0 0 0 2.971-.024c.492-.04.997-.06 1.5-.06.736 0 1.447.065 2.114.194.672.131 1.268.35 1.773.652.51.304.917.709 1.212 1.203.296.495.446 1.12.446 1.858 0 .787-.196 1.474-.58 2.043a5.13 5.13 0 0 1-1.401 1.4 7.137 7.137 0 0 1-1.766.857 9.875 9.875 0 0 1-1.526.376c.196.227.444.52.747.878.38.451.795.933 1.23 1.433.453.523.924 1.07 1.413 1.64.489.57.96 1.117 1.413 1.64.451.518.882 1 1.281 1.431.399.431.723.762.963.983zm-4.285-12.436c0-.606-.122-1.113-.365-1.506a2.81 2.81 0 0 0-.947-.945 3.836 3.836 0 0 0-1.273-.482 7.425 7.425 0 0 0-1.367-.131c-.605 0-1.113.012-1.51.036-.358.021-.67.046-.93.074l-.101 2.548a65.542 65.542 0 0 0-.052 2.603v1.296c.218.039.454.065.703.08.284.015.603.023.949.023.53 0 1.092-.056 1.667-.167.57-.11 1.1-.305 1.576-.58.472-.273.87-.644 1.183-1.105.31-.456.467-1.043.467-1.744z"/></g><g><path fill="#00293d" d="M197.86.98H49.523a.402.402 0 0 1-.403-.4c0-.221.18-.4.403-.4H197.86c.223 0 .404.179.404.4 0 .22-.18.4-.404.4"/></g><g><path fill="#00293d" d="M198.149 44.76H37.194a.402.402 0 0 1-.404-.4c0-.221.18-.4.404-.4h160.955c.222 0 .403.179.403.4 0 .22-.18.4-.403.4"/></g><g><path fill="#00293d" d="M56.737 6.719a9.193 9.193 0 0 1-.273-.042l-.141-.024.02.14c.035.23.056.657.065 1.271.01.626.014 1.518.014 2.651 0 .25-.005.524-.014.821-.008.293-.039.59-.09.882-.051.29-.135.571-.25.837a2.208 2.208 0 0 1-.471.695c-.2.199-.46.362-.774.486-.315.123-.711.186-1.178.186-.478 0-.883-.053-1.204-.158a2.285 2.285 0 0 1-.793-.428 1.885 1.885 0 0 1-.48-.632 3.298 3.298 0 0 1-.249-.775 5.404 5.404 0 0 1-.09-.844 28.917 28.917 0 0 1-.013-.851c0-.452.004-.887.013-1.307.008-.416.022-.81.04-1.172.017-.363.034-.687.052-.974.017-.285.035-.516.052-.692l.013-.135-.134.023c-.095.016-.188.03-.279.042a2.637 2.637 0 0 1-.6 0 5.842 5.842 0 0 1-.337-.042l-.126-.02.006.126c.018.364.035.807.053 1.331.017.524.026 1.13.026 1.802 0 .301-.011.603-.033.895-.022.296-.033.639-.033 1.019 0 1.212.312 2.113.928 2.68.613.565 1.602.851 2.938.851.604 0 1.149-.08 1.618-.236a3.196 3.196 0 0 0 1.203-.701c.325-.308.579-.687.755-1.127.174-.437.268-.938.276-1.49.01-.443.022-.9.04-1.372l.052-1.381a45.826 45.826 0 0 1 .145-2.266l.014-.148-.145.039c-.249.068-.43.065-.616.04"/></g><g><path fill="#00293d" d="M71.737 6.738c-.115 0-.258-.02-.424-.058l-.136-.031.009.138c.043.706.072 1.469.085 2.266.013.802.02 1.635.02 2.476v1.41c-.36-.335-.775-.733-1.237-1.187a494.625 494.625 0 0 1-3.524-3.487L64.813 6.55l-.03-.03h-.365l.007.11c.017.269.028.687.033 1.242.004.556.006 1.222.006 1.997 0 .266-.004.568-.013.906-.009.34-.02.686-.033 1.04-.013.355-.03.71-.052 1.064l-.06.988c-.017.299-.036.56-.058.777-.022.214-.041.36-.058.437l-.03.14.144-.016c.278-.03.646-.032.923 0l.133.015-.018-.131a5.02 5.02 0 0 1-.025-.361 50.35 50.35 0 0 1-.072-2.256l-.014-.787a68.787 68.787 0 0 1 .024-2.849 875.364 875.364 0 0 1 3.251 3.196 123.9 123.9 0 0 1 3.22 3.298l.031.033h.333v-.503c0-.194-.002-.422-.006-.686l-.013-.848-.013-.902a57.089 57.089 0 0 1-.007-.859v-.726c0-.235.009-.547.026-.929a127.547 127.547 0 0 1 .125-2.324c.022-.353.042-.621.059-.796l.014-.142-.141.032c-.166.038-.3.058-.397.058"/></g><g><path fill="#00293d" d="M80.34 8.353c.022-.513.046-1.035.073-1.568l.006-.125-.125.018c-.113.016-.222.03-.326.042a2.66 2.66 0 0 1-.607 0 12.103 12.103 0 0 1-.326-.042l-.125-.018.006.125c.026.533.05 1.055.072 1.568.022.511.033 1.038.033 1.564v2.084c0 .526-.011 1.055-.033 1.57-.022.517-.046 1.025-.072 1.526l-.006.117.118-.01a8.51 8.51 0 0 1 1.273 0l.118.01-.006-.117c-.027-.5-.05-1.009-.073-1.526a37.189 37.189 0 0 1-.032-1.57V9.917c0-.529.01-1.055.032-1.564"/></g><g><path fill="#00293d" d="M94.49 6.742c-.124 0-.28-.02-.464-.059l-.09-.018-.03.085a68.65 68.65 0 0 1-.82 2.116c-.172.42-.35.858-.533 1.314a70.893 70.893 0 0 1-1.533 3.517c-.247-.543-.494-1.097-.735-1.648-.272-.622-.537-1.235-.795-1.84a73.076 73.076 0 0 1-.736-1.785 58.182 58.182 0 0 1-.637-1.674l-.028-.079-.083.011c-.122.016-.24.03-.353.042-.22.024-.416.024-.635 0-.113-.012-.231-.026-.353-.042l-.185-.025.077.17c.315.694.646 1.429.992 2.204.347.775.684 1.534 1.013 2.276a276.748 276.748 0 0 1 1.664 3.84l.03.073.08-.012c.2-.028.55-.033.841 0l.078.01.03-.072a141.458 141.458 0 0 1 1.814-4.14 191.585 191.585 0 0 1 1.972-4.177l.092-.189-.207.043c-.184.04-.34.059-.465.059"/></g><g><path fill="#00293d" d="M106.17 14.45l.052-.164-.17.033c-.206.04-.452.07-.732.089a27.315 27.315 0 0 1-1.88.066h-.822c-.006-.146-.01-.34-.014-.576a83.89 83.89 0 0 1-.007-1.137v-1.2a6.526 6.526 0 0 1 .012-.454c.143 0 .321.003.534.006l.855.012c.303.004.607.014.903.03.3.016.567.037.79.06l.144.016-.03-.14a1.631 1.631 0 0 1 0-.695l.03-.136-.14.011c-.193.017-.396.03-.61.043-.215.012-.448.024-.702.036a38.951 38.951 0 0 1-1.773.042c0-.146-.003-.338-.006-.577a65.719 65.719 0 0 1-.007-.919c0-.297.007-.563.02-.794.011-.204.021-.418.03-.641a27.037 27.037 0 0 1 1.846.06l.735.048c.233.017.49.033.771.049l.136.008-.028-.132a1.616 1.616 0 0 1 0-.684l.028-.13-.134.005c-.395.017-.784.03-1.17.043-.766.024-1.567.024-2.341 0-.39-.012-.782-.026-1.176-.043l-.114-.004.006.113c.026.516.05 1.033.072 1.55.022.517.033 1.046.033 1.57v2.083c0 .525-.011 1.05-.033 1.564-.022.513-.046 1.028-.072 1.544l-.006.113.114-.005c.396-.016.798-.024 1.192-.024h2.388c.39 0 .785.008 1.173.024l.149.006-.046-.14a.962.962 0 0 1-.034-.283c0-.055.001-.115.006-.182a.71.71 0 0 1 .028-.164"/></g><g><path fill="#00293d" d="M119.492 14.536c.204.22.361.38.481.49l.237.218-.32-.04a3.105 3.105 0 0 0-.382-.023h-.776c-.127 0-.251.008-.368.024l-.06.008-.036-.048c-.131-.17-.33-.423-.598-.763a48.833 48.833 0 0 0-.886-1.087c-.32-.382-.653-.77-.992-1.155a15.516 15.516 0 0 0-.89-.94h-.354v.781c0 .534.01 1.063.033 1.57.021.518.045 1.026.072 1.526l.006.117-.118-.01a8.508 8.508 0 0 0-1.272 0l-.119.01.006-.117c.027-.5.05-1.009.073-1.525.022-.518.033-1.046.033-1.57V9.917c0-.524-.011-1.05-.033-1.565a231.2 231.2 0 0 0-.073-1.568l-.005-.115.116.007c.253.017.503.03.748.043.486.024 1.006.028 1.485-.012.616-.05 1.262-.042 1.831.068.344.067.65.179.909.334.263.158.474.367.627.623.154.257.232.58.232.961 0 .407-.101.762-.3 1.057a2.63 2.63 0 0 1-.72.719c-.278.186-.581.333-.9.436-.242.079-.47.137-.68.175l.314.37c.183.217.389.457.616.72.229.262.465.537.711.823.245.287.482.562.71.824.228.262.444.504.642.718zm-1.994-4.88c.15-.219.226-.503.226-.843 0-.293-.06-.538-.176-.726a1.351 1.351 0 0 0-.457-.455 1.87 1.87 0 0 0-.62-.235 3.698 3.698 0 0 0-.676-.065 10.238 10.238 0 0 0-1.172.05l-.049 1.23c-.017.427-.026.864-.026 1.301v.604c.095.015.196.026.302.032.36.02.828.02 1.299-.071.28-.054.54-.15.774-.285.23-.132.423-.313.575-.537z"/></g><g><path fill="#00293d" d="M130.002 10.76a5.954 5.954 0 0 0-1.01-.437 7.878 7.878 0 0 1-.981-.394 2.526 2.526 0 0 1-.74-.53c-.186-.197-.28-.475-.28-.826 0-.203.039-.392.116-.564.076-.17.187-.32.328-.442.143-.125.313-.222.506-.29.193-.068.41-.103.642-.103.23 0 .428.036.59.107.164.071.307.161.426.266.118.106.213.221.28.343.073.128.13.248.173.357l.025.066h.313l.018-.08c.052-.231.103-.423.155-.572.05-.147.114-.287.189-.418l.045-.079-.073-.054a2.92 2.92 0 0 0-.887-.446 3.914 3.914 0 0 0-1.122-.144c-.448 0-.856.059-1.216.175a2.891 2.891 0 0 0-.935.49c-.26.21-.463.466-.6.757a2.255 2.255 0 0 0-.207.97c0 .497.11.9.329 1.2.213.292.482.536.8.724.311.184.652.34 1.012.463.35.12.68.252.982.396.294.139.543.315.739.522.186.198.281.472.281.814 0 .228-.042.445-.124.646-.082.2-.2.375-.351.522-.152.148-.34.267-.559.354a1.999 1.999 0 0 1-.743.132c-.268 0-.514-.037-.73-.11a2.202 2.202 0 0 1-.57-.283 1.995 1.995 0 0 1-.414-.386 2.305 2.305 0 0 1-.27-.423l-.028-.058h-.317l-.01.091a6.454 6.454 0 0 1-.085.566 2.552 2.552 0 0 1-.158.484l-.031.074.065.048c.233.174.527.332.871.468.35.137.807.207 1.362.207.517 0 .986-.069 1.394-.205.41-.138.764-.336 1.05-.59.285-.256.506-.559.656-.902.15-.343.226-.711.226-1.095 0-.465-.111-.845-.33-1.129a2.581 2.581 0 0 0-.802-.681"/></g><g><path fill="#00293d" d="M139.06 8.353c.022-.513.046-1.035.073-1.568l.006-.125-.125.018c-.113.016-.222.03-.326.042a2.66 2.66 0 0 1-.607 0 11.778 11.778 0 0 1-.326-.042l-.125-.018.006.125c.027.533.05 1.055.073 1.568.022.514.033 1.04.033 1.564v2.084c0 .524-.011 1.053-.033 1.57-.022.517-.046 1.025-.073 1.526l-.006.117.119-.01a8.505 8.505 0 0 1 1.272 0l.118.01-.006-.117c-.027-.5-.05-1.009-.072-1.526a36.847 36.847 0 0 1-.033-1.57V9.917c0-.533.01-1.06.033-1.564"/></g><g><path fill="#00293d" d="M152.23 7.175c0-.089.021-.21.063-.361l.036-.134-.14.004c-.578.016-1.143.03-1.695.042-1.1.024-2.291.024-3.39 0-.552-.012-1.117-.026-1.696-.042l-.14-.004.037.134c.041.152.062.27.062.348 0 .103-.02.223-.061.359l-.046.152.16-.021c.179-.024.387-.044.618-.06.231-.016.472-.03.72-.042.25-.012.498-.02.747-.024.213-.004.418-.006.614-.006.025.795.037 1.603.037 2.404v2.084c0 .524-.011 1.053-.033 1.57a148.04 148.04 0 0 1-.072 1.526l-.007.117.119-.01c.392-.031.88-.031 1.272 0l.119.01-.007-.117c-.026-.5-.05-1.009-.072-1.526a36.318 36.318 0 0 1-.033-1.57V9.924c0-.799.012-1.607.037-2.404.196 0 .401.002.614.006.249.004.497.012.746.024.25.012.49.026.721.042.231.016.44.036.619.06l.16.021-.047-.152a1.235 1.235 0 0 1-.061-.346"/></g><g><path fill="#00293d" d="M164.63 6.745c-.117 0-.283-.02-.494-.059l-.077-.014-.035.07a31.802 31.802 0 0 1-1.193 2.162c-.22.362-.439.717-.657 1.064-.186.293-.367.569-.539.821-.417-.673-.824-1.34-1.21-1.983a80.953 80.953 0 0 1-1.203-2.069l-.034-.06-.07.009c-.122.016-.242.03-.359.042a3.531 3.531 0 0 1-.702 0 12.13 12.13 0 0 1-.358-.042l-.229-.03.128.19c.088.128.215.32.38.573.167.255.353.54.56.86.205.319.423.654.65 1.005a501.88 501.88 0 0 1 1.217 1.878l.372.574c0 .642-.005 1.258-.013 1.846-.009.591-.04 1.1-.091 1.515l-.016.126.127-.01c.392-.032.88-.032 1.272 0l.125.01-.013-.124a12.622 12.622 0 0 1-.046-.666 65.642 65.642 0 0 1-.059-2.833c.138-.245.3-.52.485-.815a50.195 50.195 0 0 1 1.549-2.34c.333-.476.71-1.009 1.13-1.598l.148-.207-.251.046a2.94 2.94 0 0 1-.494.06"/></g><g><path fill="#00293d" d="M186.779 7.684c.444.38.793.85 1.04 1.399.246.547.37 1.18.37 1.877 0 .698-.124 1.329-.37 1.877a3.953 3.953 0 0 1-1.04 1.398c-.443.38-.98.666-1.596.851a7.071 7.071 0 0 1-2.03.277 7.021 7.021 0 0 1-2.016-.277 4.356 4.356 0 0 1-1.597-.85 3.945 3.945 0 0 1-1.04-1.4c-.246-.546-.37-1.178-.37-1.876s.124-1.33.37-1.877a3.952 3.952 0 0 1 1.04-1.4c.443-.378.98-.67 1.595-.867a6.623 6.623 0 0 1 2.018-.296c.735 0 1.419.1 2.032.296.615.197 1.151.489 1.594.868zm-2.227 6.846a2.995 2.995 0 0 0 1.118-.686c.315-.307.566-.702.743-1.175.179-.475.27-1.049.27-1.704 0-.656-.091-1.23-.27-1.705a3.178 3.178 0 0 0-.743-1.175 2.994 2.994 0 0 0-1.118-.685 4.273 4.273 0 0 0-1.404-.225 4.23 4.23 0 0 0-1.39.225 3.003 3.003 0 0 0-1.118.685 3.181 3.181 0 0 0-.744 1.175c-.178.476-.27 1.049-.27 1.705 0 .655.092 1.229.27 1.704.178.473.428.868.744 1.175.316.307.692.538 1.117.686.429.149.897.224 1.391.224a4.27 4.27 0 0 0 1.404-.224z"/></g><g><path fill="#00293d" d="M194.278 7.46a91.489 91.489 0 0 1 1.69.042c.346.013.685.029 1.018.049.332.02.618.042.85.066l.143.015-.03-.14a1.634 1.634 0 0 1 0-.682l.028-.13-.134.005-1.315.042c-.8.024-1.593.024-2.367 0-.39-.012-.782-.026-1.176-.042l-.114-.005.005.113c.027.533.05 1.055.073 1.568.022.514.033 1.04.033 1.564v2.084c0 .524-.011 1.053-.033 1.57-.022.517-.046 1.025-.073 1.525l-.006.118.119-.01c.392-.031.879-.031 1.272 0l.118.01-.006-.118c-.026-.5-.05-1.008-.072-1.525a36.855 36.855 0 0 1-.033-1.57v-.927h.777c.306 0 .608.004.905.012.297.008.584.018.86.03.273.012.52.03.736.054l.155.017-.043-.148a1.196 1.196 0 0 1 0-.67l.042-.144-.152.014c-.549.048-1.11.08-1.67.096a59.33 59.33 0 0 1-1.61.024c0-.222-.003-.437-.007-.644a41.788 41.788 0 0 1 0-1.552c.004-.228.01-.464.017-.71"/></g><g><path fill="#fffffe" d="M27.853 6.706a.375.375 0 0 0-.227.01c-.144.053-.274.197-.342.374-.106.282.044 1.207.803 1.646 1.207.699 4.878 1.496 5.755 1.68h.022s-1.47-.505-3.848-2.292c-.72-.541-1.363-.982-1.932-1.277a1.819 1.819 0 0 1-.231-.141zm-2.775-.595c-.214.065-.596.378-.596.378s.527-.026.675-.043c.148-.017.27 0 .44.017.169.017.227.248.232.428.006.18-.031.616.117 1.341.147.72.945 1.384 1.609 1.74l-.764 1.643h.425l.685-1.472c.14.062.266.104.392.132l-.624 1.34h.426l.6-1.292c.169.007.361.003.607-.003.29-.008.57-.04.831-.082l2.251.614-.879-.637c-1.339-.334-2.865-.775-3.592-1.193-.92-.53-1.112-1.636-.952-2.056.102-.27.305-.485.544-.573.016-.006.032-.007.048-.012-.095-.153-.165-.323-.314-.532-.31-.436-.824-.402-1.15-.278-.326.125-.504.458-.504.458s-.293.017-.507.082zm11.187 3.252a7.086 7.086 0 0 0-2.433-5.342.045.045 0 0 0-.06 0 .044.044 0 0 0-.006.059 6.186 6.186 0 0 1 1.153 3.627c0 3.33-2.578 6.038-5.746 6.038-3.169 0-5.747-2.709-5.747-6.038 0-1.32.399-2.575 1.153-3.627a.044.044 0 0 0-.006-.059.045.045 0 0 0-.06 0 7.086 7.086 0 0 0-2.433 5.342c0 3.908 3.182 7.088 7.093 7.088 3.91 0 7.092-3.18 7.092-7.088z"/></g><g><path fill="#fffffe" d="M1.49 7.102h.351v7.032c0 .043.018.084.048.113.03.028.073.043.113.04.04-.004 4.123-.331 5.33-.17.102.014.203.026.302.038.615.075 1.037.144 1.234.377H1.49zm6.33 6.596l-.3-.037a8.681 8.681 0 0 0-1.05-.048c-1.449 0-3.576.156-4.182.202V5.921l.314-.046v7.287c0 .042.018.083.05.112a.144.144 0 0 0 .113.04c.038-.004 3.784-.356 4.869-.093.722.174 1.174.421 1.38.759-.307-.174-.743-.227-1.194-.282zm1.479-.205c-.352-.408-.953-.604-1.447-.723-.32-.078-.842-.106-1.431-.106-1.274 0-2.86.13-3.37.177V4.81c.631-.06 3.347-.29 4.638.111.552.172.96.504 1.226 1.004.09.169.165.356.223.564l.01.035.028.117c.011.05.023.1.033.153.06.31.09.655.09 1.04zm.288 0V7.835c0-.386.03-.731.09-1.041.01-.053.021-.103.033-.153l.028-.117.01-.035c.058-.208.132-.395.222-.564.267-.5.674-.832 1.227-1.004.57-.177 1.42-.23 2.245-.23 1.04 0 2.041.085 2.394.119v8.03c-.75-.066-3.792-.315-4.803-.07-.493.119-1.094.315-1.446.723zm1.665-.272c1.084-.263 4.83.089 4.868.092a.142.142 0 0 0 .114-.039.154.154 0 0 0 .05-.112V5.875l.313.046v7.894c-.784-.06-4.12-.303-5.232-.154l-.299.037c-.45.055-.888.108-1.195.282.207-.338.658-.585 1.381-.76zm6.153 1.31h-7.388c.198-.232.62-.301 1.236-.376l.304-.038c1.206-.16 5.295.166 5.336.17a.15.15 0 0 0 .161-.153V7.102h.351z"/></g><g><path fill="#fffffe" d="M30.577 34.387a2.082 2.082 0 0 0-.74-.617c.418-.317.89-.671 1.286-.773.604-.154 1.025-.136 1.029-.136.053 0 .09-.036.105-.085.016-.048-.013-.108-.056-.136-.18-.116-.402-.26-1.162-.065-.58.149-1.227.624-1.747 1.006l-.04.03c-.164.12-.322.237-.474.34-.005.002-.004.008-.008.011-.517.338-1.35.87-1.631 1.02-.905.478-2.058.935-2.678 1.18l-.105.042c-.473-1.077-.466-1.74-.374-2.11.12-.48.416-.98.657-1.303l.471 1.48a.143.143 0 0 0 .18.092l.212-.068a.142.142 0 0 0 .092-.178c-.004-.013-.263-.82-.538-1.69.229-.023.592-.076.78-.134.227-.07.317-.104.317-.104a.183.183 0 0 0 .108-.236.185.185 0 0 0-.238-.107c-.003 0-.089.032-.297.097-.18.056-.586.11-.78.127l-.232-.784c.302-.023 1.026-.116 1.37-.222.35-.109.488-.16.488-.16a.183.183 0 0 0 .109-.237.186.186 0 0 0-.238-.107c-.004.001-.139.05-.47.154-.323.1-1.111.2-1.346.21-.007.001-.012.005-.019.006l-.182-.616c.444-.03 1.604-.177 2.147-.345.544-.169.76-.25.76-.25a.183.183 0 0 0 .108-.236.184.184 0 0 0-.238-.107c-.004.002-.215.08-.74.243-.535.166-1.771.317-2.128.334-.005 0-.01.003-.014.003l-.006-.017c-.068-.233-.257-.437-.562-.609.992-.11 2.372-.3 3.246-.563 1.98-.599 2.898-1.204 3.153-1.462l.009-.005-.002-.002c.044-.046.066-.08.069-.099a.142.142 0 0 0-.067-.14.151.151 0 0 0-.16.005c-.954.63-1.82.862-2.738 1.107l-.403.109c-1.194.33-3.335.563-4.14.642l-.38-1.575.533-.319.073.333c.062.278.123.556.167.77a.143.143 0 0 0 .14.113c.015.001.465-.003 1.877-.246 1.396-.24 4.114-1.103 4.14-1.112a.142.142 0 0 0-.063-.275c-.04.005-4.058.576-5.137.424-.432-.06-.81-.359-.968-.499.071-.212.178-.5.329-.827.122.09.42.28.844.339.1.014.236.02.39.02.643 0 1.605-.099 1.655-.105a.183.183 0 1 0-.038-.364c-.015.001-1.482.152-1.956.085a1.487 1.487 0 0 1-.712-.298c-.006-.006-.014-.008-.02-.012.128-.25.28-.514.456-.778.007.008.01.017.018.023.01.01.252.221.64.276.071.01.167.014.274.014.42 0 1.028-.062 1.112-.07a.183.183 0 1 0-.039-.365c-.273.028-1.037.094-1.295.057a.938.938 0 0 1-.445-.185.186.186 0 0 0-.061-.035c.186-.25.396-.493.632-.721a.18.18 0 0 0 .03.054.585.585 0 0 0 .454.19c.164 0 .378-.028.454-.038a.184.184 0 0 0 .158-.206.185.185 0 0 0-.209-.157 2.65 2.65 0 0 1-.47.03c-.06-.01-.103-.055-.106-.058a.175.175 0 0 0-.057-.043 4.35 4.35 0 0 1 2.71-1.056c3.75-.131 4.515 1.919 4.766 3.473.124.768.013 1.416-.094 2.043-.102.6-.208 1.22-.112 1.941.105.787.183 1.504.235 2.028a2.6 2.6 0 0 0-1.088-.235c-.871 0-1.907.715-2.82 1.346-.418.289-.812.561-1.153.741-.887.469-2.272 1.104-2.795 1.342-.035-.083-.102-.341-.075-1.089a.142.142 0 0 0-.124-.145.142.142 0 0 0-.159.106c-.294 1.19.15 1.62.168 1.638.043.04.105.05.157.026l.08-.036c.018-.008 1.878-.843 2.972-1.422.365-.193.77-.473 1.201-.77.856-.591 1.827-1.261 2.548-1.261 1.6 0 2.373 1.673 2.603 2.29l-3.583.065"/></g><g><path fill="#fffffe" d="M14.93 27.128c-1.017.022-2.106-.067-3.05-.617-.428-.249-.688-.58-.773-.982-.088-.418.045-.795.156-.946a.97.97 0 0 1 .566-.36c.24.144.598.377 1.032.722.763.605 1.274 1.535 2.069 2.183zM5.33 24.945c.763.605 1.274 1.535 2.069 2.183-1.017.022-2.106-.067-3.05-.617-.428-.249-.688-.58-.773-.982-.088-.418.045-.795.156-.946a.972.972 0 0 1 .566-.36c.24.144.598.377 1.032.722zm-.474 2.79l-.398.856h-.427l.447-.963-.402-.112-.5 1.075H3.15l.55-1.184c-.843-.313-1.802-1.862-1.59-2.622l-.58-.09.457-.333s.007-.192.1-.363c.092-.17.199-.418.624-.55.425-.134.925-.075 1.091.195.092.148.132.253.15.318a1.267 1.267 0 0 0-.517.408c-.185.251-.324.73-.218 1.233.073.35.297.844.947 1.221.934.543 1.975.67 2.965.67.249 0 .492-.01.731-.021l2.711 1.974-3.106-1.42.831.717s-2.054-.613-3.44-1.01zm7.012 5.788c-1.017.022-2.105-.067-3.05-.616-.428-.25-.688-.58-.772-.982-.088-.418.045-.795.156-.946a.97.97 0 0 1 .565-.36c.24.144.598.377 1.032.721.764.606 1.274 1.536 2.07 2.183zm.89 1.608s-2.053-.612-3.437-1.007l-.397.854h-.426l.447-.962c-.15-.042-.286-.08-.403-.111l-.499 1.073h-.426l.549-1.181c-.841-.314-1.8-1.86-1.589-2.619L6 31.088l.457-.332s.007-.192.1-.362c.092-.17.199-.418.623-.55.425-.133.924-.074 1.09.195.091.148.131.253.15.317a1.267 1.267 0 0 0-.516.408c-.185.25-.324.729-.218 1.231.073.348.296.842.946 1.22.932.54 1.973.667 2.961.667.248 0 .492-.009.73-.02.993.72 2.709 1.97 2.709 1.97l-3.103-1.416zm3.06-6.387s-2.052-.613-3.436-1.01l-.398.857h-.426l.447-.963a66.41 66.41 0 0 0-.402-.112l-.5 1.075h-.425l.549-1.184c-.842-.313-1.8-1.862-1.59-2.622l-.578-.09.457-.333s.006-.192.099-.363c.092-.17.2-.418.624-.55.425-.134.924-.075 1.09.195.091.148.13.253.149.318a1.267 1.267 0 0 0-.516.408c-.185.251-.324.73-.218 1.233.073.35.297.844.946 1.221.933.543 1.974.67 2.962.67.248 0 .491-.01.73-.021l2.708 1.974-3.103-1.42z"/></g><g><path fill="#dc3e2a" d="M10.191 23.86a.26.26 0 0 0-.261.259.26.26 0 0 0 .261.258.26.26 0 0 0 .261-.258.26.26 0 0 0-.26-.259"/></g><g><path fill="#dc3e2a" d="M2.661 23.86a.26.26 0 0 0-.261.259.26.26 0 0 0 .261.258.26.26 0 0 0 .262-.258.26.26 0 0 0-.262-.259"/></g><g><path fill="#dc3e2a" d="M7.131 30.26a.26.26 0 0 0-.261.259.26.26 0 0 0 .261.258.26.26 0 0 0 .261-.258.26.26 0 0 0-.26-.259"/></g><g><path fill="#00293d" d="M14.24 9.292c-.526.22-.967.162-1.274-.163a1.018 1.018 0 0 1-.276-.723c0-.324.117-.599.348-.814.228-.214.516-.322.856-.322.38 0 .694.137.932.407.236.267.355.616.355 1.037 0 .399-.098.785-.29 1.149a2.263 2.263 0 0 1-.78.864c-.326.21-.687.316-1.074.316h-.096v-.255l.08-.014c.355-.06.633-.23.85-.52.192-.254.315-.577.369-.962zm-.75-1.023c0 .207.043.373.126.493.157.223.442.212.68.017.011-.073.016-.144.016-.21 0-.296-.046-.532-.136-.702-.081-.152-.183-.227-.311-.227-.096 0-.179.055-.252.17a.83.83 0 0 0-.123.459z"/></g><g><path fill="#00293d" d="M11.197 11.044c.333 0 .614-.105.834-.312a1.05 1.05 0 0 0 .335-.796c0-.287-.09-.525-.266-.705a.962.962 0 0 0-.402-.242c.123-.066.228-.149.316-.247a.866.866 0 0 0 .235-.59.858.858 0 0 0-.262-.64.91.91 0 0 0-.656-.252c-.202 0-.389.05-.555.147a.97.97 0 0 0-.385.408l-.03.059.156.173.07-.072c.314-.317.528-.289.713-.098a.513.513 0 0 1 .138.375c0 .384-.256.626-.782.738l-.076.015v.281l.107-.012c.285-.034.482.032.626.194a.764.764 0 0 1 .185.534c0 .19-.05.34-.154.457-.204.232-.541.249-.955-.088l-.068-.055-.161.167.048.066c.242.329.575.495.99.495"/></g><g><path fill="#00293d" d="M7.26 11.044c-.32 0-.585-.086-.787-.256a.852.852 0 0 1-.313-.68c0-.378.2-.68.597-.897a1.568 1.568 0 0 1-.355-.358.923.923 0 0 1-.152-.522c0-.31.105-.57.31-.77.206-.2.47-.301.785-.301.298 0 .544.085.734.251.193.17.29.395.29.668a.796.796 0 0 1-.127.448c-.068.103-.182.22-.345.354.206.159.348.298.434.425a.946.946 0 0 1 .156.543c0 .322-.112.588-.331.792-.218.201-.519.303-.895.303zm-.393-3.033c0 .14.121.376.685.717a.99.99 0 0 0 .163-.223.622.622 0 0 0 .053-.272c0-.177-.049-.32-.15-.437a.458.458 0 0 0-.364-.165.373.373 0 0 0-.272.112.359.359 0 0 0-.115.268zm-.065 2.056c0 .177.052.32.159.437.104.114.23.17.385.17a.467.467 0 0 0 .325-.127.37.37 0 0 0 .136-.282c0-.26-.237-.53-.705-.8-.202.17-.3.367-.3.602z"/></g><g><path fill="#00293d" d="M5.384 10.592c-.018-.026-.047-.101-.047-.311V7.26H5.13l-.026.02c-.44.35-.784.564-1.024.634l-.069.02v.239l.097-.002a1.93 1.93 0 0 0 .36-.048l.065-.012c.003.021.005.058.005.121v2.049c0 .228-.037.298-.053.317-.034.042-.108.073-.213.09l-.08.012v.256h1.482v-.252l-.077-.016c-.149-.03-.197-.073-.212-.096"/></g><g><path fill="#b4ad74" d="M26.31 6.375c.144 0 .26-.115.26-.257a.259.259 0 0 0-.26-.258.259.259 0 0 0-.26.258c0 .142.117.257.26.257"/></g></g></g></g></svg>